<svg width="18" height="18" viewBox="0 0 18 18" fill="none" xmlns="http://www.w3.org/2000/svg">
<path d="M1 8.79483C1 5.70067 1 4.15318 1.9376 3.19236C2.8744 2.23071 4.3832 2.23071 7.4 2.23071H10.6C13.6168 2.23071 15.1256 2.23071 16.0624 3.19236C17 4.15318 17 5.70067 17 8.79483V10.4359C17 13.53 17 15.0775 16.0624 16.0383C15.1256 17 13.6168 17 10.6 17H7.4C4.3832 17 2.8744 17 1.9376 16.0383C1 15.0775 1 13.53 1 10.4359V8.79483Z" stroke="black" stroke-width="1.37144"/>
<path d="M4.9999 2.23077V1M12.9999 2.23077V1M1.3999 6.33334H16.5999" stroke="black" stroke-width="1.37144" stroke-linecap="round"/>
<path d="M13.8002 12.8974C13.8002 13.115 13.7159 13.3237 13.5659 13.4776C13.4159 13.6314 13.2124 13.7179 13.0002 13.7179C12.788 13.7179 12.5845 13.6314 12.4345 13.4776C12.2845 13.3237 12.2002 13.115 12.2002 12.8974C12.2002 12.6798 12.2845 12.4711 12.4345 12.3172C12.5845 12.1633 12.788 12.0769 13.0002 12.0769C13.2124 12.0769 13.4159 12.1633 13.5659 12.3172C13.7159 12.4711 13.8002 12.6798 13.8002 12.8974ZM13.8002 9.61531C13.8002 9.83293 13.7159 10.0416 13.5659 10.1955C13.4159 10.3494 13.2124 10.4358 13.0002 10.4358C12.788 10.4358 12.5845 10.3494 12.4345 10.1955C12.2845 10.0416 12.2002 9.83293 12.2002 9.61531C12.2002 9.3977 12.2845 9.189 12.4345 9.03512C12.5845 8.88125 12.788 8.7948 13.0002 8.7948C13.2124 8.7948 13.4159 8.88125 13.5659 9.03512C13.7159 9.189 13.8002 9.3977 13.8002 9.61531ZM9.8002 12.8974C9.8002 13.115 9.71591 13.3237 9.56588 13.4776C9.41585 13.6314 9.21237 13.7179 9.0002 13.7179C8.78802 13.7179 8.58454 13.6314 8.43451 13.4776C8.28448 13.3237 8.2002 13.115 8.2002 12.8974C8.2002 12.6798 8.28448 12.4711 8.43451 12.3172C8.58454 12.1633 8.78802 12.0769 9.0002 12.0769C9.21237 12.0769 9.41585 12.1633 9.56588 12.3172C9.71591 12.4711 9.8002 12.6798 9.8002 12.8974ZM9.8002 9.61531C9.8002 9.83293 9.71591 10.0416 9.56588 10.1955C9.41585 10.3494 9.21237 10.4358 9.0002 10.4358C8.78802 10.4358 8.58454 10.3494 8.43451 10.1955C8.28448 10.0416 8.2002 9.83293 8.2002 9.61531C8.2002 9.3977 8.28448 9.189 8.43451 9.03512C8.58454 8.88125 8.78802 8.7948 9.0002 8.7948C9.21237 8.7948 9.41585 8.88125 9.56588 9.03512C9.71591 9.189 9.8002 9.3977 9.8002 9.61531ZM5.8002 12.8974C5.8002 13.115 5.71591 13.3237 5.56588 13.4776C5.41585 13.6314 5.21237 13.7179 5.0002 13.7179C4.78802 13.7179 4.58454 13.6314 4.43451 13.4776C4.28448 13.3237 4.2002 13.115 4.2002 12.8974C4.2002 12.6798 4.28448 12.4711 4.43451 12.3172C4.58454 12.1633 4.78802 12.0769 5.0002 12.0769C5.21237 12.0769 5.41585 12.1633 5.56588 12.3172C5.71591 12.4711 5.8002 12.6798 5.8002 12.8974ZM5.8002 9.61531C5.8002 9.83293 5.71591 10.0416 5.56588 10.1955C5.41585 10.3494 5.21237 10.4358 5.0002 10.4358C4.78802 10.4358 4.58454 10.3494 4.43451 10.1955C4.28448 10.0416 4.2002 9.83293 4.2002 9.61531C4.2002 9.3977 4.28448 9.189 4.43451 9.03512C4.58454 8.88125 4.78802 8.7948 5.0002 8.7948C5.21237 8.7948 5.41585 8.88125 5.56588 9.03512C5.71591 9.189 5.8002 9.3977 5.8002 9.61531Z" fill="black"/>
</svg>
