<svg width="40" height="40" viewBox="0 0 40 40" fill="none" xmlns="http://www.w3.org/2000/svg">
<path d="M20.6801 11.96C21.1601 12.67 21.4401 13.52 21.4401 14.44C21.4301 16.84 19.5401 18.79 17.1601 18.87C17.0601 18.86 16.9401 18.86 16.8301 18.87C14.4501 18.79 12.5601 16.84 12.5601 14.44C12.5601 11.99 14.5401 10 17.0001 10" stroke="#B2ABAB" stroke-width="1.5" stroke-linecap="round" stroke-linejoin="round"/>
<path d="M24.4098 12C26.3498 12 27.9098 13.57 27.9098 15.5C27.9098 17.39 26.4098 18.93 24.5398 19C24.4598 18.99 24.3698 18.99 24.2798 19" stroke="#B2ABAB" stroke-width="1.5" stroke-linecap="round" stroke-linejoin="round"/>
<path d="M12.1602 22.56C9.74021 24.18 9.74021 26.82 12.1602 28.43C14.9102 30.27 19.4202 30.27 22.1702 28.43C24.5902 26.81 24.5902 24.17 22.1702 22.56C19.4302 20.73 14.9202 20.73 12.1602 22.56Z" stroke="#B2ABAB" stroke-width="1.5" stroke-linecap="round" stroke-linejoin="round"/>
<path d="M26.3398 28C27.0598 27.85 27.7398 27.56 28.2998 27.13C29.8598 25.96 29.8598 24.03 28.2998 22.86C27.7498 22.44 27.0798 22.16 26.3698 22" stroke="#B2ABAB" stroke-width="1.5" stroke-linecap="round" stroke-linejoin="round"/>
</svg>
